<svg id="marginX_Logo-Light" xmlns="http://www.w3.org/2000/svg" xmlns:xlink="http://www.w3.org/1999/xlink" width="150" height="39.538" viewBox="0 0 150 39.538">
  <defs>
    <linearGradient id="linear-gradient" x1="0.5" x2="0.5" y2="1" gradientUnits="objectBoundingBox">
      <stop offset="0" stop-color="#a6f616"/>
      <stop offset="1" stop-color="#18eed8"/>
    </linearGradient>
  </defs>
  <g id="Group_1" data-name="Group 1" transform="translate(45.613 11.451)">
    <path id="Path_1" data-name="Path 1" d="M355.46,153.316a1.722,1.722,0,0,1,.2.578,6.725,6.725,0,0,1,.032.748v11.865q0,1.474-.8,1.731a3.38,3.38,0,0,1-1.016.128,3.51,3.51,0,0,1-.973-.107,1.647,1.647,0,0,1-.55-.257.971.971,0,0,1-.3-.428,4.27,4.27,0,0,1-.106-1.112V159.3q-.528.663-1.545,2.106t-1.29,1.806l-.381.5a2.024,2.024,0,0,1-.518.385,1.757,1.757,0,0,1-1.756.021,1.938,1.938,0,0,1-.561-.439l-.169-.235q-.424-.534-1.671-2.277T342.7,159.3v7.2a6.4,6.4,0,0,1-.032.737,1.529,1.529,0,0,1-.2.546q-.317.577-1.651.578c-.889,0-1.4-.193-1.608-.578a1.5,1.5,0,0,1-.2-.555,6.974,6.974,0,0,1-.032-.769V154.6a6.42,6.42,0,0,1,.032-.737,1.72,1.72,0,0,1,.2-.566q.318-.555,1.651-.555a3.1,3.1,0,0,1,.984.139,1.265,1.265,0,0,1,.54.289l.126.128,4.8,6.371q3.6-4.811,4.8-6.349.36-.577,1.7-.578c.9,0,1.442.193,1.639.578Z" transform="translate(-338.98 -152.309)" fill="#fff"/>
    <path id="Path_2" data-name="Path 2" d="M468.323,153.7l5.713,11.928a2.815,2.815,0,0,1,.36,1.09q0,.771-1.227,1.39a2.758,2.758,0,0,1-1.132.364,1.119,1.119,0,0,1-.678-.193,1.247,1.247,0,0,1-.381-.407q-.116-.213-.329-.641l-1.1-2.309h-5.861l-1.1,2.309c-.141.286-.251.491-.328.619a1.541,1.541,0,0,1-.381.4,1.082,1.082,0,0,1-.678.2,2.757,2.757,0,0,1-1.133-.364q-1.227-.6-1.227-1.367a2.8,2.8,0,0,1,.36-1.09l5.713-11.949a1.944,1.944,0,0,1,1.714-1.091,1.792,1.792,0,0,1,1.693,1.112Zm-1.714,5.131-1.4,2.928h2.815Z" transform="translate(-439.909 -152.183)" fill="#fff"/>
    <path id="Path_3" data-name="Path 3" d="M583.271,165.618a3.412,3.412,0,0,1,.317,1.112q0,.814-1.312,1.367a2.894,2.894,0,0,1-1.09.3,1.081,1.081,0,0,1-.677-.2,1.536,1.536,0,0,1-.392-.416q-.211-.407-1.651-3.869l-.655.043h-2.666v2.416a6.382,6.382,0,0,1-.032.737,1.722,1.722,0,0,1-.2.566q-.3.577-1.651.578-1.481,0-1.736-.791a3.6,3.6,0,0,1-.126-1.112V154.481a6.42,6.42,0,0,1,.032-.737,1.72,1.72,0,0,1,.2-.566q.3-.577,1.651-.578h4.571a5.836,5.836,0,0,1,3.619,1.367,5.014,5.014,0,0,1,1.4,1.8,5.7,5.7,0,0,1,.55,2.523,5.338,5.338,0,0,1-1.587,3.976q.464,1.134,1.439,3.357Zm-8.126-5.45h2.709a2.01,2.01,0,0,0,1.227-.471,1.664,1.664,0,0,0,.613-1.41,1.7,1.7,0,0,0-.613-1.422,2.036,2.036,0,0,0-1.27-.48h-2.666Z" transform="translate(-534.69 -152.192)" fill="#fff"/>
    <path id="Path_4" data-name="Path 4" d="M667.691,157.367h3.724q1.142.043,1.4.6a2.676,2.676,0,0,1,.212,1.2v4.7a1.875,1.875,0,0,1-.592,1.3,7.049,7.049,0,0,1-5.332,1.86,7.381,7.381,0,0,1-5.481-2.4,8.039,8.039,0,0,1-2.328-5.8,7.544,7.544,0,0,1,2.371-5.675,7.77,7.77,0,0,1,10.306-.609,1.2,1.2,0,0,1,.572.951,2.186,2.186,0,0,1-.486,1.208c-.55.756-1.052,1.133-1.5,1.133a2.892,2.892,0,0,1-1.29-.587,3.743,3.743,0,0,0-2.116-.587,4.109,4.109,0,0,0-2.857,1.144,3.869,3.869,0,0,0-1.249,2.993,4.315,4.315,0,0,0,1.27,3.142,3.933,3.933,0,0,0,2.878,1.294,5.431,5.431,0,0,0,2.094-.385v-2.33h-1.671a1.872,1.872,0,0,1-.932-.171.8.8,0,0,1-.36-.5,3.74,3.74,0,0,1-.085-.9,3.507,3.507,0,0,1,.095-.908.7.7,0,0,1,.349-.471,2.276,2.276,0,0,1,1.016-.193Z" transform="translate(-608.698 -150.738)" fill="#fff"/>
    <path id="Path_5" data-name="Path 5" d="M763.66,154.481a6.424,6.424,0,0,1,.032-.737,1.722,1.722,0,0,1,.2-.566q.3-.577,1.651-.578,1.481,0,1.756.791a4.271,4.271,0,0,1,.106,1.112v11.885a6.378,6.378,0,0,1-.032.748,1.736,1.736,0,0,1-.2.555q-.3.577-1.651.578-1.481,0-1.736-.812a3.379,3.379,0,0,1-.126-1.09V154.483Z" transform="translate(-696.583 -152.192)" fill="#fff"/>
    <path id="Path_6" data-name="Path 6" d="M814.81,153.362a1.014,1.014,0,0,1,.6-.5,3.338,3.338,0,0,1,1-.128,3.589,3.589,0,0,1,.973.107,1.534,1.534,0,0,1,.55.257.866.866,0,0,1,.264.448,3.381,3.381,0,0,1,.126,1.09V166.5a6.392,6.392,0,0,1-.032.748,1.736,1.736,0,0,1-.2.555q-.3.577-1.651.578a3.48,3.48,0,0,1-1.142-.128,1.218,1.218,0,0,1-.529-.407q-4.762-6.414-6.264-8.38V166.5a6.392,6.392,0,0,1-.032.748,1.735,1.735,0,0,1-.2.555q-.3.577-1.651.578c-.9,0-1.41-.193-1.608-.578a1.687,1.687,0,0,1-.2-.578,6.724,6.724,0,0,1-.032-.748V154.547a2.636,2.636,0,0,1,.2-1.187,1.014,1.014,0,0,1,.6-.5,3.472,3.472,0,0,1,1.038-.128,3.435,3.435,0,0,1,1,.118,1.3,1.3,0,0,1,.518.266,5.672,5.672,0,0,1,.486.555q4.466,6.137,5.967,8.1v-7.226a2.637,2.637,0,0,1,.2-1.187Z" transform="translate(-731.217 -152.301)" fill="#fff"/>
    <path id="Path_7" data-name="Path 7" d="M914.674,158.187l4.253,4.724a2.3,2.3,0,0,1,.72,1.367,2.008,2.008,0,0,1-.815,1.3,2.277,2.277,0,0,1-1.376.748q-.561,0-1.3-.855l-4.021-4.661-4.021,4.661q-.761.854-1.3.855a2.337,2.337,0,0,1-1.376-.759q-.836-.759-.836-1.294a2.345,2.345,0,0,1,.741-1.367l4.254-4.724-4.254-4.724a2.2,2.2,0,0,1-.741-1.347,2.037,2.037,0,0,1,.826-1.315,2.309,2.309,0,0,1,1.387-.759q.562,0,1.3.855l4.021,4.661,4.021-4.661q.76-.854,1.3-.855a2.309,2.309,0,0,1,1.365.748,2.016,2.016,0,0,1,.826,1.326,2.153,2.153,0,0,1-.72,1.347l-4.254,4.724Z" transform="translate(-815.262 -150.04)" fill="#fff"/>
  </g>
  <g id="Group_2" data-name="Group 2">
    <path id="Path_8" data-name="Path 8" d="M190.721,137.57a2.564,2.564,0,0,0-.2.2l-3.175,3.564,3.175-3.564C190.588,137.7,190.653,137.632,190.721,137.57Z" transform="translate(-165.686 -128.108)" fill="none"/>
    <path id="Path_9" data-name="Path 9" d="M213.382,134.52h0Z" transform="translate(-187.605 -125.545)" fill="none"/>
    <path id="Path_10" data-name="Path 10" d="M136.82,142.035a1.285,1.285,0,0,0,1.662.15,1.287,1.287,0,0,1-1.662-.15l-5.337-5.428c-.062-.062-.126-.121-.193-.177a2.515,2.515,0,0,1,.193.177Z" transform="translate(-118.481 -127.15)" fill="none"/>
    <path id="Path_11" data-name="Path 11" d="M178.49,161.15l-1.439,1.615a1.36,1.36,0,0,1-.221.2,1.233,1.233,0,0,0,.221-.2Z" transform="translate(-156.828 -147.926)" fill="none"/>
    <path id="Path_12" data-name="Path 12" d="M131.5,262.314l.281-.284-.281.284Z" transform="translate(-118.657 -232.71)" fill="none"/>
    <path id="Path_13" data-name="Path 13" d="M169.61,212.177l2.541-2.567-2.541,2.567Z" transform="translate(-150.748 -188.654)" fill="none"/>
    <path id="Path_14" data-name="Path 14" d="M155.219,211.337h0l-2.7-2.727Z" transform="translate(-136.357 -187.813)" fill="none"/>
    <path id="Path_15" data-name="Path 15" d="M126.78,133.71h0a.006.006,0,0,1,0,0Z" transform="translate(-114.683 -124.864)" fill="none"/>
    <path id="Path_16" data-name="Path 16" d="M194.118,201.493a.911.911,0,0,0-1.218-.065.908.908,0,0,1,1.218.065l3.135,3.167a1.011,1.011,0,0,1,.126.161.938.938,0,0,0-.126-.163l-3.135-3.167Z" transform="translate(-170.359 -181.606)" fill="none"/>
    <path id="Path_17" data-name="Path 17" d="M201.418,229.7a.874.874,0,0,1-.148.2l-3.6,3.636h0l3.6-3.636A.922.922,0,0,0,201.418,229.7Z" transform="translate(-174.376 -205.538)" fill="none"/>
    <path id="Path_18" data-name="Path 18" d="M221.26,223.78a.94.94,0,0,1,.022.945A.936.936,0,0,0,221.26,223.78Z" transform="translate(-194.24 -200.563)" fill="none"/>
    <path id="Path_19" data-name="Path 19" d="M120.468,201.485l-3.135,3.167a.935.935,0,0,0,0,1.31l2.726,2.754-2.726-2.754a.935.935,0,0,1,0-1.31l3.135-3.167a.912.912,0,0,1,1.3,0l.9.909-.9-.909A.912.912,0,0,0,120.468,201.485Z" transform="translate(-106.502 -181.598)" fill="none"/>
    <path id="Path_20" data-name="Path 20" d="M133.28,250.44l1.306-1.32-.872-.881.872.881Z" transform="translate(-120.156 -221.12)" fill="none"/>
    <path id="Path_21" data-name="Path 21" d="M185.7,203.634l1.058-1.069c.024-.024.052-.043.079-.065a.743.743,0,0,0-.079.065Z" transform="translate(-164.297 -182.678)" fill="none"/>
    <path id="Path_22" data-name="Path 22" d="M83.508,142.7a13.064,13.064,0,0,1,4.571-10.1,2.731,2.731,0,0,0-2.4.147l-3.45,1.961a2.79,2.79,0,0,0-1.406,2.428v12.133a2.791,2.791,0,0,0,1.428,2.441l5.294,2.947,1.284-1.3a12.934,12.934,0,0,1-5.318-10.66Z" transform="translate(-75.982 -123.754)" fill="#191919"/>
    <path id="Path_23" data-name="Path 23" d="M205.924,135.4l-3.241-1.964a2.731,2.731,0,0,0-2.53-.16,13.083,13.083,0,0,1,4.422,9.969,12.932,12.932,0,0,1-5.318,10.66l-1.587-1.6h0l2.81,2.839,5.372-3.04a2.791,2.791,0,0,0,1.41-2.432V137.784a2.791,2.791,0,0,0-1.339-2.389Z" transform="translate(-174.376 -124.297)" fill="#191919"/>
    <path id="Path_24" data-name="Path 24" d="M80.768,82.87,76.2,80.2a14.168,14.168,0,0,0-14.291,0L57.335,82.87a14.465,14.465,0,0,0-7.145,12.5v5.332a14.467,14.467,0,0,0,7.145,12.5l4.571,2.666a14.168,14.168,0,0,0,14.291,0l4.571-2.666a14.465,14.465,0,0,0,7.145-12.5V95.373A14.467,14.467,0,0,0,80.768,82.87Zm2.308,20.77a2.794,2.794,0,0,1-1.41,2.432l-5.372,3.04-2.81-2.839h0l3.6-3.636a.921.921,0,0,0,.148-.2.936.936,0,0,0-.022-.945.871.871,0,0,0-.126-.161l-3.135-3.167a.911.911,0,0,0-1.218-.065.749.749,0,0,0-.079.065l-1.058,1.069-2.54,2.566h0l-2.7-2.727-.9-.909a.912.912,0,0,0-1.3,0l-3.135,3.167a.935.935,0,0,0,0,1.31l2.726,2.754.872.881-1.306,1.32-.28.282h0l-1.284,1.3-5.294-2.947a2.789,2.789,0,0,1-1.428-2.441V91.647a2.79,2.79,0,0,1,1.406-2.428l3.45-1.961a2.737,2.737,0,0,1,2.4-.147h0l0,0c.076.032.148.067.221.105l.046.026c.058.032.117.067.172.1l.058.038c.052.037.1.075.155.115l.055.043a2.521,2.521,0,0,1,.193.177l5.337,5.428a1.285,1.285,0,0,0,1.662.15,1.233,1.233,0,0,0,.221-.2l1.439-1.615,3.175-3.564c.063-.07.128-.136.2-.2.019-.018.038-.032.057-.048.052-.045.106-.089.16-.129L75.5,87.5c.058-.041.118-.08.18-.116l.047-.029c.077-.043.155-.085.235-.12h0a2.731,2.731,0,0,1,2.53.16l3.241,1.964a2.793,2.793,0,0,1,1.339,2.389v11.881Z" transform="translate(-50.19 -78.27)" fill="url(#linear-gradient)"/>
    <path id="Path_25" data-name="Path 25" d="M120.53,143.807a13.086,13.086,0,0,0-4.422-9.969h0c-.081.035-.158.077-.235.12l-.047.029c-.062.037-.122.075-.18.116l-.062.043c-.055.042-.107.085-.16.129l-.057.048a2.559,2.559,0,0,0-.2.2l-3.175,3.565-1.439,1.615a1.36,1.36,0,0,1-.221.2,1.287,1.287,0,0,1-1.662-.15l-5.337-5.428c-.062-.062-.126-.121-.193-.177-.017-.016-.036-.029-.055-.043-.051-.04-.1-.08-.155-.115l-.058-.038c-.057-.037-.114-.072-.172-.1l-.046-.026c-.073-.038-.147-.073-.221-.105a.006.006,0,0,1,0,0,13.388,13.388,0,0,0,.747,20.757l.28-.282,1.306-1.32-.872-.881-2.726-2.754a.935.935,0,0,1,0-1.31l3.135-3.167a.912.912,0,0,1,1.3,0l.9.909,2.7,2.727,2.541-2.566,1.058-1.069c.024-.024.052-.043.079-.065a.908.908,0,0,1,1.218.065l3.135,3.167a.954.954,0,0,1,.126.163.936.936,0,0,1,.022.945.874.874,0,0,1-.148.2l-3.6,3.636,1.587,1.6a12.934,12.934,0,0,0,5.318-10.66Z" transform="translate(-90.331 -124.864)" fill="#314806"/>
  </g>
</svg>
